<?xml version="1.0" encoding="utf-8"?>
<!-- Generator: Adobe Illustrator 24.2.3, SVG Export Plug-In . SVG Version: 6.00 Build 0)  -->
<svg version="1.1" id="Layer_1" xmlns="http://www.w3.org/2000/svg" xmlns:xlink="http://www.w3.org/1999/xlink" x="0px" y="0px"
	 viewBox="0 0 200 200" style="enable-background:new 0 0 200 200;" xml:space="preserve">
<style type="text/css">
	.st0{fill:none;stroke:#D8D8D8;stroke-miterlimit:10;}
	.st1{fill:#FFFFFF;}
	.st2{display:none;}
	.st3{display:inline;fill:#D8D8D8;}
	.st4{fill:#D8D8D8;}
</style>
<g id="Layer_1_2_">
	<g>
		<line class="st0" x1="0" y1="-1" x2="201.5" y2="200.5"/>
		<line class="st0" x1="200" y1="-1" x2="0.5" y2="198.5"/>
		<rect x="58" y="56" class="st1" width="86" height="86"/>
	</g>
	<g id="Layer_1_1_">
		<g class="st2">
			<path class="st3" d="M90,49c6.4,0,12.9,0,19.5,0c-1,4.3-1.9,8.5-2.8,12.8c-1.7,7.5-3.3,14.9-5,22.4c-0.2,0.8-0.4,1.1-1.3,1.1
				c-5.5-0.1-10.9-0.1-16.4,0c-0.8,0-1.1-0.3-1.3-1c-2.6-11.5-5.1-22.9-7.7-34.4c-0.2-0.7-0.1-1,0.7-1c1.6,0.1,3.2,0.1,4.8,0
				c0.7,0,1,0.2,1.1,0.9c1.6,7.4,3.3,14.7,4.9,22.1c0.5,2.2,1,4.4,1.4,6.5c0.1,0.7,0.3,1,1.1,1c4-0.1,8.1,0,12.1,0
				c0.6,0,0.9,0,1.1-0.7c2.1-9.5,4.2-19,6.4-28.5c0.2-1-0.5-0.7-0.9-0.7c-5.5,0-11,0-16.5,0C90.9,49.5,90.4,49.6,90,49z"/>
			<path class="st3" d="M75.4,60.8c-1.1,0-2.1,0-3.1,0c-3.2,0.1-5.7,2.5-5.7,5.6c0,3.2,2.4,5.7,5.7,5.8c0.4,0,0.9,0,1.3,0
				c1,0,1,0,1.2-1.2c1.3,1.3,2.4,2.5,3.7,3.7c0.4,0.4,0.2,0.6-0.1,0.9c-1.2,1.1-2.3,2.3-3.7,3.7c0.2-1.6-0.8-1.3-1.6-1.3
				c-6.5,0.3-10.6-4.2-11.8-8.2c-2.1-7.2,3.2-14.6,10.7-14.7c2.2,0,2.2,0,2.7,2.1c0.1,0.6,0.2,1.2,0.4,1.8
				C75.1,59.5,75.3,60.1,75.4,60.8z"/>
		</g>
		<path class="st4" d="M87.6,110.4c-1.9-1.9-3.9-3.9-5.8-5.8c0,0-0.1-0.1-0.1-0.1c-0.1,0.2,0,0.4,0,0.7c0,0.3,0,0.7,0,1
			c0,0.1,0,0.2-0.1,0.2c-1.3,0-2.6,0.1-3.9-0.1c-2.4-0.2-4.4-1.3-5.8-3.2c-3.5-4.6-0.9-11.4,4.7-12.7c0.6-0.1,1.3-0.2,1.9-0.2
			c1.4,0,2.8,0,4.2,0c0.1,0,0.2,0,0.2-0.2c-0.6-2.6-1.2-5.3-1.8-7.9c0-0.1-0.1-0.2-0.2-0.2c-1.4,0-2.8-0.1-4.2,0.1
			c-2.3,0.2-4.5,0.9-6.5,2.1c-3.4,2-5.8,4.8-7.2,8.4c-0.5,1.2-0.8,2.4-0.9,3.7c0,0.1,0,0.2,0,0.3c0,0.2,0,0.3,0,0.5c0,0,0,0,0,0
			c0,0.1,0,0.3-0.1,0.4c0,0.1,0,0.2,0,0.3c0,0.1,0,0.1,0,0.2v0.7c0,0.2,0,0.4,0.1,0.5c0,0.1,0,0.1,0,0.1c0.1,0.6,0.1,1.1,0.2,1.6
			c0.5,2.7,1.6,5.2,3.3,7.4c2.3,2.8,5.2,4.7,8.7,5.7c1.2,0.3,2.4,0.5,3.7,0.5c1.2,0,2.4,0,3.6,0c0.2,0,0.2,0.1,0.2,0.3
			c0,0.5,0,1.1,0,1.6c0.1,0,0.1-0.1,0.2-0.1c1.9-1.9,3.8-3.8,5.7-5.7C87.7,110.6,87.8,110.6,87.6,110.4z"/>
		<path class="st4" d="M103.5,73.2L103.5,73.2c0,0.1,0,0.1,0,0.2c0,0,0,0,0,0.1c0.1,0.5,0.1,0.5,0.6,0.5c8.7,0,17.3,0,26,0
			c0.3,0,0.3,0,0.2,0.3c-0.9,3.9-1.7,7.8-2.6,11.7c-0.9,3.9-1.7,7.7-2.6,11.6c-1,4.3-1.9,8.6-2.9,12.9c-0.4,2-0.9,3.9-1.3,5.9
			c0,0.2-0.1,0.2-0.3,0.2c-6.5,0-12.9,0-19.4,0c-0.2,0-0.2-0.1-0.3-0.2c-0.6-2.9-1.3-5.8-1.9-8.6c-0.7-3.1-1.4-6.1-2.1-9.2
			c-0.9-3.8-1.7-7.6-2.5-11.3c-0.9-4.1-1.8-8.3-2.8-12.4c-0.1-0.5-0.2-1-0.3-1.5l0,0c0,0,0,0,0-0.1c-3.1,0-6.3,0-9.4,0
			c0,0.1,0,0.2,0.1,0.2c0,0,0,0,0,0c1.3,5.9,2.7,11.9,4,17.8c1.1,4.9,2.2,9.7,3.3,14.6c1.2,5.2,2.4,10.5,3.5,15.7
			c0.2,1.1,0.5,2.2,0.7,3.3h26.2c0-0.1,0.1-0.2,0.1-0.3c0.2-1,0.4-2,0.7-2.9c0.9-3.9,1.8-7.9,2.6-11.8c0.9-4.2,1.9-8.4,2.8-12.7
			c0.8-3.7,1.7-7.5,2.5-11.2c0.9-4.1,1.8-8.3,2.8-12.4c0-0.1,0-0.1,0.1-0.2c0-0.1,0-0.1,0.1-0.2C122.1,73.2,112.8,73.2,103.5,73.2z"
			/>
	</g>
</g>
</svg>
